<?xml version="1.0" standalone="no"?>
<!DOCTYPE svg PUBLIC "-//W3C//DTD SVG 20010904//EN"
 "http://www.w3.org/TR/2001/REC-SVG-20010904/DTD/svg10.dtd">
<svg version="1.0" xmlns="http://www.w3.org/2000/svg"
 width="700.000000pt" height="700.000000pt" viewBox="0 0 700.000000 700.000000"
 preserveAspectRatio="xMidYMid meet">
<metadata>
Created by potrace 1.11, written by Peter Selinger 2001-2013
</metadata>
<g transform="translate(0.000000,700.000000) scale(0.100000,-0.100000)"
fill="#000000" stroke="none">
<path d="M1155 6849 c-223 -24 -419 -102 -585 -234 -247 -197 -392 -467 -418
-780 -9 -111 -7 -4654 2 -4710 3 -22 9 -56 12 -75 23 -141 113 -347 204 -465
38 -49 160 -171 210 -209 166 -127 360 -202 575 -224 93 -9 4643 -7 4720 2
296 37 553 181 739 416 128 161 210 362 232 565 9 88 11 4605 2 4700 -14 143
-31 214 -81 335 -58 141 -124 240 -240 358 -163 167 -402 283 -652 318 -63 9
-4638 11 -4720 3z m3285 -1359 c172 -29 315 -73 387 -118 57 -36 63 -67 30
-163 -28 -82 -86 -250 -206 -597 -44 -128 -83 -238 -87 -244 -3 -5 -26 -23
-50 -38 -55 -35 -82 -33 -206 14 -184 68 -360 98 -495 84 -172 -18 -280 -121
-243 -232 12 -37 84 -109 186 -186 567 -428 749 -662 812 -1045 9 -54 8 -295
-2 -375 -27 -226 -114 -461 -233 -629 -62 -87 -193 -218 -269 -269 -221 -148
-456 -210 -751 -199 -151 6 -166 8 -288 32 -305 62 -580 206 -843 441 -73 65
-72 76 47 449 56 174 103 325 104 334 8 54 66 86 139 77 61 -8 86 -18 123 -50
87 -77 298 -194 425 -236 92 -31 185 -36 230 -13 70 36 92 136 51 228 -24 53
-112 149 -226 244 -382 318 -509 490 -576 776 -15 63 -20 320 -8 403 38 268
111 463 251 670 27 41 59 86 71 100 40 47 173 178 213 208 21 16 41 31 44 35
34 38 287 172 400 212 98 34 261 74 330 82 30 4 73 10 95 14 84 16 435 10 545
-9z"/>
</g>
</svg>
